<svg width="220" height="196" viewBox="0 0 220 196" fill="none" xmlns="http://www.w3.org/2000/svg">
<path d="M210.632 24.4211H170.947V9.15789C170.947 4.08289 166.864 0 161.789 0H58C52.925 0 48.8421 4.08289 48.8421 9.15789V24.4211H9.15789C4.08289 24.4211 0 28.5039 0 33.5789V54.9474C0 68.5697 8.58553 82.5737 23.6197 93.3724C35.6395 102.034 50.2539 107.529 65.5934 109.284C77.575 129.164 91.5789 137.368 91.5789 137.368V164.842H73.2632C59.7934 164.842 48.8421 172.741 48.8421 186.211V190.789C48.8421 193.308 50.9026 195.368 53.4211 195.368H166.368C168.887 195.368 170.947 193.308 170.947 190.789V186.211C170.947 172.741 159.996 164.842 146.526 164.842H128.211V137.368C128.211 137.368 142.214 129.164 154.196 109.284C169.574 107.529 184.188 102.034 196.17 93.3724C211.166 82.5737 219.789 68.5697 219.789 54.9474V33.5789C219.789 28.5039 215.707 24.4211 210.632 24.4211ZM37.8908 73.5684C28.5803 66.8526 24.4211 59.3737 24.4211 54.9474V48.8421H48.9184C49.3 61.2816 51.1316 72.1947 53.8026 81.7342C48.0408 79.75 42.6605 77.0026 37.8908 73.5684V73.5684ZM195.368 54.9474C195.368 61.0908 188.614 68.7224 181.899 73.5684C177.129 77.0026 171.711 79.75 165.949 81.7342C168.62 72.1947 170.451 61.2816 170.833 48.8421H195.368V54.9474Z" fill="black"/>
</svg>
